<svg width="94px" height="58px" viewBox="0 0 94 58" version="1.1" xmlns="http://www.w3.org/2000/svg" xmlns:xlink="http://www.w3.org/1999/xlink">
    <g id="Page-1" stroke="none" stroke-width="1" fill="none" fill-rule="evenodd">
        <g id="Homepage-v2" transform="translate(-673.000000, -7951.000000)" fill="#505050">
            <path d="M717.097874,7951.02162 C716.863514,7951.05678 716.633073,7951.11929 716.410432,7951.20915 L674.913938,7967.21144 C673.761736,7967.66072 673,7968.77026 673,7970.00874 C673,7971.24722 673.761656,7972.35677 674.913938,7972.80604 L689.19373,7978.30683 L689.19373,7993.465 C689.20154,7994.66827 689.928048,7995.75052 691.037375,7996.21539 L716.31624,8006.7789 C717.054458,8007.08754 717.890307,8007.08754 718.628545,8006.7789 L743.90741,7996.21539 C745.016716,7995.75048 745.743155,7994.66827 745.751054,7993.465 L745.751054,7978.33783 L748.063359,7977.43145 C748.840634,7977.16969 749.47344,7976.60321 749.821011,7975.86483 C750.168641,7975.12253 750.199889,7974.2708 749.906943,7973.50899 C749.610089,7972.74326 749.016399,7972.13379 748.262582,7971.81735 C747.508736,7971.5048 746.657218,7971.50871 745.907281,7971.83688 L717.50368,7982.80745 L684.350479,7970.02462 L717.50368,7957.21079 L755.938434,7972.05691 L755.938434,7993.654 C752.985583,7994.84167 750.876362,7997.70538 750.876362,8001.03006 C750.876362,8005.40569 754.516654,8009 758.938181,8009 C763.359707,8009 767,8005.40569 767,8001.03006 C767,7997.70148 764.890778,7994.84167 761.937927,7993.654 L761.937927,7970.02562 C761.945737,7968.78324 761.187991,7967.66588 760.031888,7967.21272 L718.56639,7951.21043 C718.101589,7951.02681 717.593812,7950.96039 717.097714,7951.0229 L717.097874,7951.02162 Z M695.193724,7980.61986 L716.410932,7988.80853 C717.106183,7989.07419 717.871709,7989.07419 718.56695,7988.80853 L739.753161,7980.65116 L739.753161,7991.46471 L717.474042,8000.77854 L695.194924,7991.46471 L695.193724,7980.61986 Z M758.938341,7999.02849 C760.102342,7999.02849 760.969369,7999.88017 760.969369,8001.02878 C760.969369,8002.17738 760.102252,8003.06027 758.938341,8003.06027 C757.774429,8003.06027 756.907312,8002.17733 756.907312,8001.02878 C756.907312,7999.88022 757.774429,7999.02849 758.938341,7999.02849 Z" id="Fill-1"></path>
        </g>
    </g>
</svg>