<svg width="96px" height="96px" viewBox="0 0 96 96" version="1.1" xmlns="http://www.w3.org/2000/svg" xmlns:xlink="http://www.w3.org/1999/xlink">
    <g id="Page-1" stroke="none" stroke-width="1" fill="none" fill-rule="evenodd">
        <g id="Homepage-v2" transform="translate(-133.000000, -3226.000000)">
            <g id="Group" transform="translate(133.000000, 3226.000000)">
                <polygon id="Path-2" fill="#FFD200" points="36.5718237 28 59.4237604 28 70 48.1319494 58.6799033 67 36.5718237 67 25 47.5"></polygon>
                <g id="Group-32" fill="#505050">
                    <path d="M42.227,90.012001 L42.227,90.004188 L42.227,90.012001 C42.14106,90.012001 42.04731,90.004188 41.96138,89.996376 C38.44188,89.515906 34.99658,88.590176 31.71938,87.24638 C28.51628,85.93388 25.47718,84.22298 22.68028,82.16048 C22.22715,81.82454 21.942,81.31282 21.89512,80.75428 C21.84825,80.19178 22.04356,79.64098 22.43418,79.23478 C23.10215,78.53947 23.46938,77.62538 23.47328,76.66058 C23.47328,75.66839 23.08656,74.73868 22.38738,74.03558 C21.68816,73.33636 20.75458,72.94968 19.76628,72.94968 C18.77409,72.95358 17.84438,73.3403 17.14128,74.03558 C16.74284,74.43402 16.19597,74.64105 15.63348,74.60199 C15.07098,74.56292 14.55538,74.28949 14.21158,73.84418 C12.04748,71.02388 10.25068,67.94188 8.86778,64.68398 C7.453682,61.34808 6.469382,57.83238 5.953682,54.23898 C5.875557,53.68429 6.035713,53.12178 6.398992,52.69988 C6.758362,52.2741 7.289612,52.02019 7.844292,52.01238 C9.85209,51.97331 11.47709,50.30928 11.47709,48.30538 C11.47709,46.28978 9.84039,44.62958 7.824792,44.59838 C7.266202,44.59056 6.738892,44.34057 6.371692,43.91869 C6.008412,43.49681 5.840442,42.93431 5.918572,42.37959 C6.410762,38.80149 7.367772,35.30149 8.75447,31.97359 C10.11387,28.72359 11.87947,25.64549 14.00447,22.82519 C14.33259,22.38769 14.83259,22.11035 15.37167,22.05957 C15.91073,22.00488 16.45757,22.18457 16.86387,22.54785 C17.09825,22.75488 17.35215,22.93066 17.62559,23.07129 C18.28184,23.41113 18.68419,24.07909 18.68029,24.81739 C18.68029,25.12989 18.60607,25.42677 18.46154,25.70411 C18.1256,26.35255 17.46154,26.75881 16.72714,26.75881 C16.50448,26.75881 16.28183,26.71974 16.07089,26.64162 C13.08259,31.01662 11.07089,35.86822 10.08649,41.05562 C10.8443,41.29781 11.55529,41.65718 12.20369,42.12202 C12.84431,42.58296 13.40679,43.13762 13.87949,43.77432 C14.85605,45.09462 15.37559,46.65712 15.37559,48.30552 C15.37559,49.94612 14.85997,51.50862 13.89119,52.82502 C13.42244,53.45783 12.86389,54.01252 12.22709,54.47342 C11.58647,54.94217 10.87549,55.29764 10.12549,55.54372 C11.13329,60.73122 13.17239,65.57472 16.18409,69.93471 C17.27789,69.35659 18.51219,69.04799 19.74659,69.04799 L19.76222,69.04799 C20.7466,69.04799 21.71142,69.23549 22.62162,69.61049 C23.56693,69.9933 24.41072,70.5558 25.13722,71.28239 C25.86378,72.00505 26.42632,72.85659 26.80912,73.80189 C27.18021,74.71986 27.36771,75.68079 27.36381,76.66909 C27.36381,77.85659 27.08256,79.05189 26.5435,80.11439 C31.3794,83.32529 36.7385,85.35659 42.4815,86.13779 C42.99712,86.20811 43.45806,86.47373 43.7706,86.8917 C44.0831,87.30576 44.21982,87.82139 44.14951,88.337005 C44.02842,89.286225 43.19638,90.012805 42.22761,90.012805 L42.227,90.012001 Z M55.653,89.597941 C54.72331,89.597941 53.9225,88.937781 53.7389,88.027641 C53.71546,87.89483 53.69984,87.76592 53.69984,87.63702 C53.70374,86.71514 54.3639,85.91042 55.27014,85.73082 C60.50844,84.68392 65.38714,82.58242 69.76214,79.48862 C69.28558,78.48082 69.03558,77.35972 69.03948,76.24642 C69.03948,75.26204 69.22698,74.29722 69.59807,73.37922 C69.98088,72.43 70.54338,71.58232 71.26997,70.86362 C71.99263,70.13706 72.84027,69.57452 73.78557,69.19172 C74.69963,68.82063 75.66057,68.62922 76.64497,68.62922 L76.66059,68.62922 C77.70749,68.62922 78.72309,68.84016 79.67619,69.25422 C82.58639,64.84402 84.51999,59.98082 85.41839,54.79322 C84.01999,54.23463 82.82459,53.28542 81.96529,52.04322 C81.08248,50.76982 80.61759,49.26982 80.61369,47.71512 C80.6176,44.65262 82.43399,41.90262 85.25039,40.70732 C84.22699,35.54322 82.17619,30.72682 79.16059,26.38732 C78.2309,26.77404 77.25039,26.96935 76.23869,26.96935 L76.22697,26.96935 C75.2426,26.96935 74.28167,26.78185 73.36757,26.40685 C72.42226,26.02404 71.57847,25.46154 70.85587,24.73495 C70.12931,24.00839 69.56677,23.16075 69.18397,22.21545 C68.81288,21.29748 68.62538,20.33655 68.62538,19.34825 C68.62538,18.36778 68.80897,17.41075 69.17616,16.50445 C64.80896,13.53965 59.96916,11.54355 54.78916,10.57475 C54.23447,11.97705 53.28136,13.17635 52.03916,14.03565 C50.76576,14.91846 49.26576,15.38725 47.70716,15.38725 C46.14856,15.38725 44.65246,14.9185 43.37516,14.03565 C42.13296,13.17627 41.17986,11.97705 40.62516,10.57475 C36.05486,11.43022 31.72676,13.09815 27.75016,15.52785 C27.44547,15.71535 27.09,15.81691 26.73456,15.81691 C26.04706,15.81691 25.42206,15.46535 25.06656,14.87941 C24.50406,13.96144 24.79312,12.75441 25.715,12.19581 C28.1369,10.71141 30.715,9.47701 33.37911,8.51221 C36.09791,7.52783 38.93381,6.82861 41.80881,6.42631 C42.32833,6.35209 42.87131,6.49662 43.28541,6.82084 C43.69947,7.14506 43.969,7.63334 44.02369,8.15674 C44.219,10.05124 45.80489,11.48094 47.70728,11.48094 L47.72291,11.48094 C49.62911,11.48094 51.21121,10.05124 51.40651,8.15674 C51.4612,7.6333 51.72682,7.14504 52.14479,6.82084 C52.55885,6.49662 53.09791,6.35209 53.62139,6.42631 C57.14479,6.9185 60.59799,7.85991 63.87539,9.21931 C67.07849,10.54741 70.12149,12.27791 72.90659,14.35991 C73.32847,14.67241 73.6019,15.13335 73.67612,15.65291 C73.74643,16.17244 73.61362,16.69201 73.29331,17.10601 C72.80112,17.75445 72.5394,18.52791 72.5394,19.34821 C72.54331,20.3404 72.92612,21.27011 73.6253,21.97321 C74.32452,22.66852 75.2581,23.05911 76.2464,23.05911 C77.07843,23.05911 77.8675,22.78958 78.5198,22.28177 C78.92605,21.96536 79.4573,21.82083 79.969,21.88724 C80.49244,21.95755 80.95338,22.22318 81.2737,22.64115 C83.3831,25.40675 85.1409,28.42235 86.5081,31.60595 C87.9065,34.86765 88.8831,38.30125 89.4183,41.80895 C89.49643,42.32457 89.36361,42.85585 89.04721,43.27775 C88.73471,43.69181 88.25815,43.97306 87.74251,44.04337 C85.90661,44.28556 84.52371,45.86757 84.52771,47.71917 C84.5238,49.61757 85.94181,51.20357 87.83241,51.40667 C88.34803,51.46136 88.83241,51.73089 89.15271,52.14105 C89.47693,52.55121 89.62146,53.07855 89.55505,53.59805 C89.10192,57.13715 88.19955,60.60585 86.87535,63.91405 C85.57845,67.14065 83.88315,70.20315 81.82845,73.02345 C81.51595,73.45704 81.02767,73.7422 80.49645,73.81251 C79.96911,73.87892 79.42225,73.71876 79.01205,73.38282 C78.34799,72.83595 77.53545,72.54688 76.66435,72.54298 C75.67216,72.54298 74.73855,72.9336 74.03935,73.62888 C73.34013,74.3281 72.95345,75.25778 72.95345,76.24998 C72.95345,77.15232 73.28157,78.01948 73.87142,78.69138 C74.22298,79.09372 74.39486,79.62888 74.34798,80.16018 C74.2972,80.69143 74.02767,81.18748 73.60579,81.51568 C71.06279,83.49618 68.29329,85.18368 65.37529,86.52738 C62.40259,87.90238 59.26199,88.921881 56.05109,89.566481 L56.04718,89.566481 C55.91046,89.586013 55.78156,89.597941 55.65265,89.597941 L55.653,89.597941 Z M48.8718,84.55104 C48.80539,84.55104 48.73899,84.54714 48.67258,84.54323 C47.60228,84.43385 46.82098,83.47293 46.92648,82.40263 C46.97336,81.91825 47.19992,81.47294 47.5632,81.14483 C47.96945,80.77764 48.51632,80.59795 49.0632,80.65655 C49.58273,80.71124 50.04758,80.96124 50.3796,81.36358 C50.70772,81.76592 50.86398,82.27764 50.80929,82.79328 C50.76242,83.27766 50.53585,83.72687 50.17257,84.05108 C49.8171,84.3753 49.35226,84.55108 48.87177,84.55108 L48.8718,84.55104 Z M24.7118,23.52004 C24.50086,23.52004 24.28992,23.48879 24.09071,23.41848 C23.06731,23.07473 22.51651,21.96538 22.86021,20.94188 C23.12583,20.145 23.87191,19.61378 24.71181,19.61378 C24.92275,19.61378 25.13368,19.64503 25.33681,19.71534 C26.35631,20.05909 26.91101,21.16844 26.56341,22.19194 C26.29388,22.98491 25.55171,23.52004 24.71181,23.52004 L24.7118,23.52004 Z" id="Fill-1"></path>
                    <path d="M47.707,15.383 C45.8086,15.383 43.9922,14.67988 42.5898,13.4064 C41.1953,12.1447 40.3242,10.422 40.1289,8.5548 C40.10156,8.28917 40.08984,8.02355 40.08984,7.76183 C40.08984,5.72663 40.88281,3.81653 42.32034,2.37513 C43.75784,0.94153 45.67194,0.14853 47.70704,0.14853 C49.74224,0.14853 51.65234,0.9415 53.09374,2.37903 C54.53124,3.81653 55.32424,5.73063 55.32424,7.76573 C55.32424,8.02745 55.30861,8.29698 55.28518,8.55479 C55.08987,10.42199 54.21878,12.14069 52.82428,13.40639 C51.42198,14.67979 49.60548,15.383 47.70708,15.383 L47.707,15.383 Z M47.707,11.4768 L47.71481,11.4768 C49.62101,11.4768 51.20311,10.0471 51.39841,8.1526 C51.41013,8.02369 51.41794,7.89479 51.41794,7.76198 C51.41404,5.71898 49.74994,4.05498 47.70704,4.05108 C45.66404,4.05499 44.00004,5.71908 43.99614,7.76198 C43.99614,7.89089 44.00396,8.01979 44.01568,8.1526 C44.21099,10.0471 45.79688,11.4768 47.69928,11.4768 L47.707,11.4768 Z" id="Fill-2"></path>
                    <path d="M48.293,95.852044 C46.2578,95.852044 44.3477,95.059027 42.9063,93.621497 C41.4688,92.183997 40.6758,90.269897 40.6758,88.234797 C40.6758,88.152766 40.6758,88.101987 40.67971,88.078547 L40.67971,88.070734 C40.72267,86.07073 41.53127,84.19573 42.96091,82.79343 C44.39061,81.39113 46.28901,80.61763 48.29291,80.61763 C52.35541,80.61763 55.69521,83.79733 55.90231,87.85203 C55.90621,87.97703 55.91012,88.109844 55.91012,88.234844 C55.91012,90.270044 55.11715,92.180144 53.67962,93.621544 C52.23822,95.059044 50.32802,95.852044 48.29292,95.852044 L48.293,95.852044 Z M44.58207,88.238698 C44.58991,90.277797 46.254,91.941797 48.293,91.945698 C50.336,91.941792 52,90.277698 52.0039,88.234797 C52.0039,88.172297 52.0039,88.105887 51.99609,88.047297 C51.90234,86.0707 50.27339,84.5239 48.29299,84.5239 L48.28517,84.5239 C46.28517,84.5239 44.62107,86.1567 44.58207,88.156698 L44.58207,88.203573 L44.58207,88.230917 L44.58207,88.238729 L44.58207,88.238698 Z" id="Fill-3"></path>
                    <path d="M76.242,26.961 L76.23028,26.961 C75.2459,26.961 74.28498,26.7735 73.37088,26.3985 C72.42557,26.01569 71.58178,25.45319 70.85918,24.7266 C70.13262,24.00004 69.57008,23.1524 69.18728,22.2071 C68.81619,21.28913 68.62869,20.3282 68.62869,19.3399 C68.62869,17.6837 69.17947,16.0469 70.17949,14.7305 C70.39433,14.44925 70.6248,14.18753 70.85918,13.94925 C71.58184,13.22269 72.42558,12.66015 73.37478,12.27735 C74.28884,11.90626 75.24978,11.71485 76.23418,11.71485 L76.25371,11.71485 C77.23809,11.71485 78.20291,11.90235 79.11311,12.27735 C80.05842,12.66016 80.90221,13.22266 81.62871,13.94925 C82.35137,14.67581 82.91781,15.52345 83.30061,16.46875 C83.6717,17.38672 83.8592,18.35155 83.8592,19.33595 C83.8592,20.32032 83.6717,21.28905 83.30061,22.20315 C82.9178,23.14846 82.35139,24.00005 81.62871,24.72265 C81.40996,24.9414 81.16777,25.15234 80.90996,25.35546 C79.58576,26.39066 77.92556,26.961 76.24196,26.961 L76.242,26.961 Z M73.617,21.9688 C74.31622,22.66411 75.2498,23.0547 76.2381,23.0547 C77.07013,23.0547 77.8592,22.78517 78.5115,22.27736 C78.64431,22.1758 78.75759,22.07424 78.86306,21.96877 C79.55837,21.26955 79.94896,20.33597 79.94896,19.34377 C79.94896,18.35157 79.55834,17.42187 78.86306,16.71877 C78.15994,16.01955 77.23026,15.63287 76.23806,15.63287 C75.24587,15.63287 74.31616,16.0235 73.61306,16.71877 C73.49587,16.83596 73.3904,16.96096 73.27712,17.10158 C72.78493,17.75002 72.52321,18.52348 72.52321,19.34378 C72.53492,20.33597 72.92165,21.26568 73.61701,21.96878 L73.617,21.9688 Z" id="Fill-4"></path>
                    <path d="M19.75,84.273 C18.76562,84.273 17.8008,84.0855 16.8906,83.7105 C15.94529,83.32769 15.0976,82.76519 14.375,82.0386 C13.64844,81.31204 13.0859,80.4644 12.7031,79.5191 C12.3281,78.60504 12.1406,77.6363 12.1444501,76.6519 C12.1444501,75.66752 12.33201,74.7027 12.7031,73.7847 C13.08591,72.83939 13.64841,71.9878 14.375,71.2652 L14.38281,71.25348 C15.10937,70.53082 15.95701,69.97228 16.90621,69.58938 C17.82027,69.22219 18.78121,69.03469 19.76561,69.03469 L19.78124,69.03469 C20.76562,69.03469 21.72654,69.22219 22.64064,69.59719 C23.58205,69.98 24.42584,70.54641 25.14844,71.26909 C25.875,71.99565 26.43754,72.84329 26.82034,73.78859 C27.19143,74.70656 27.37893,75.66749 27.3750896,76.65579 C27.3750896,77.61673 27.19534,78.56199 26.84378,79.46049 C26.47659,80.38627 25.94144,81.22219 25.24998,81.94099 L25.24998,81.9449 C25.24998,81.9449 25.24607,81.94881 25.24217,81.95271 L25.22263,81.97224 C25.20701,81.98787 25.18357,82.01521 25.15232,82.04646 C24.42966,82.77302 23.58202,83.33556 22.63672,83.71836 C21.72266,84.09336 20.76172,84.28086 19.77732,84.28086 L19.75,84.273 Z M17.1328,74.031 C16.43358,74.73412 16.0469,75.6638 16.0469,76.656 C16.0469,77.6482 16.43362,78.5779 17.1328,79.281 C17.83202,79.97631 18.7656,80.3669 19.7578,80.3669 C20.74608,80.363 21.6719,79.98018 22.375,79.2888 L22.38281,79.27708 C22.39453,79.26537 22.41406,79.24974 22.4375,79.2224 L22.4375,79.21849 C23.10156,78.52318 23.4687,77.61299 23.4687,76.65209 C23.4687,75.6599 23.08198,74.73019 22.3828,74.03099 C21.68358,73.33177 20.7578,72.94509 19.7734,72.94509 C18.7734,72.949 17.8359,73.33572 17.1406,74.03099 L17.1328,74.031 Z" id="Fill-5"></path>
                    <path d="M88.234,55.324 C87.96056,55.324 87.68322,55.30838 87.40588,55.27713 C85.54648,55.07401 83.83558,54.19903 82.57778,52.80833 C81.31608,51.40993 80.62078,49.59743 80.61688,47.70673 C80.61688,45.84733 81.29657,44.05833 82.52308,42.66763 C83.73788,41.28873 85.40978,40.39813 87.22618,40.15593 C87.56602,40.10905 87.90587,40.08561 88.23398,40.08561 C90.26918,40.08561 92.17928,40.87858 93.62068,42.31611 C95.05818,43.75361 95.85118,45.66771 95.85118,47.70281 C95.85118,49.73791 95.05821,51.64811 93.62068,53.08951 C92.17928,54.53091 90.26908,55.324 88.23398,55.324 L88.234,55.324 Z M88.234,43.996 C88.07384,43.996 87.91369,44.00772 87.73791,44.03116 C85.90201,44.27335 84.51911,45.85536 84.5231013,47.70696 C84.5192,49.60536 85.93721,51.19136 87.82781,51.39446 C87.96843,51.41008 88.10125,51.4179 88.23406,51.4179 C90.27706,51.41399 91.94106,49.7499 91.94496,47.707 C91.94106,45.664 90.27696,44 88.23406,43.9961 L88.234,43.996 Z" id="Fill-6"></path>
                    <path d="M7.7656,55.91 C5.7304,55.91 3.8203,55.11703 2.3789,53.6795 C0.9414,52.2381 0.1484,50.3279 0.1484,48.2928 C0.1484,46.2576 0.94137,44.3475 2.3789,42.9061 C3.8164,41.4686 5.7305,40.6756 7.7656,40.6756 L7.87498,40.6756 L7.890605,40.6756 L7.898418,40.6756 C9.90622,40.71076 11.78902,41.51544 13.19532,42.949 C14.60152,44.3826 15.38282,46.281 15.38282,48.2928 C15.38282,50.3006 14.60938,52.1912 13.20312,53.6248 C11.80472,55.0545 9.92972,55.8631 7.933618,55.906 L7.921899,55.906 C7.898462,55.906 7.843774,55.91 7.765649,55.91 L7.7656,55.91 Z M7.749975,44.58199 C5.714775,44.59372 4.054675,46.2578 4.054675,48.2929 C4.058581,50.332 5.718775,51.996 7.757775,52.0038 L7.789025,52.0038 L7.835901,52.0038 L7.843713,52.0038 C9.85151,51.96474 11.47651,50.3007 11.47651,48.2968 C11.47651,46.2812 9.83981,44.621 7.824213,44.5898 L7.8164,44.5898 L7.769525,44.5898 C7.765619,44.58199 7.757806,44.58199 7.749994,44.58199 L7.749975,44.58199 Z" id="Fill-7"></path>
                    <path d="M19.336,27.371 C17.4649,27.371 15.6641,26.6835 14.2696,25.4413 C14.15632,25.33974 14.05085,25.23818 13.9571,25.14442 C13.23054,24.41786 12.668,23.57022 12.2852,22.62492 C11.91411,21.70695 11.72661,20.74212 11.72661,19.75772 C11.72661,18.77335 11.91411,17.80462 12.2852,16.89052 C12.66801,15.94521 13.23051,15.09362 13.9571,14.37102 C14.67976,13.64446 15.5274,13.08192 16.4727,12.69912 C17.38676,12.32803 18.3477,12.14053 19.3321,12.14053 L19.34773,12.14053 C20.33211,12.14053 21.29693,12.32803 22.20713,12.69912 C23.15244,13.08193 23.99623,13.64443 24.72273,14.37102 C24.82429,14.47258 24.91804,14.57414 25.03523,14.69914 C26.27743,16.09364 26.95713,17.89054 26.95713,19.75774 C26.95713,20.74212 26.76963,21.70694 26.39854,22.62494 C26.01573,23.57025 25.45323,24.42184 24.72664,25.14444 C24.00398,25.871 23.15634,26.43354 22.21104,26.81634 C21.29698,27.18743 20.33604,27.37493 19.35164,27.37493 L19.336,27.371 Z M19.34381,16.047 C18.35162,16.047 17.42191,16.43372 16.71881,17.1329 C16.01959,17.83212 15.63291,18.7657 15.63291,19.7579 C15.63682,20.75009 16.02354,21.6798 16.71881,22.379 C16.76569,22.42587 16.82037,22.47275 16.87506,22.52744 C17.55084,23.13291 18.42976,23.46494 19.34386,23.46885 C20.33605,23.46494 21.26576,23.07823 21.96886,22.38295 C22.66417,21.68373 23.05086,20.75405 23.05476,19.76185 C23.05476,18.85169 22.72273,17.97665 22.12117,17.30095 C22.06648,17.23845 22.0157,17.18376 21.96883,17.13689 C21.26571,16.43377 20.33603,16.04709 19.34383,16.04709 L19.34381,16.047 Z" id="Fill-8"></path>
                    <path d="M76.648,83.85901 C75.66362,83.85901 74.6988,83.6715 73.7886,83.2965 C72.84329,82.91369 71.9956,82.35119 71.273,81.6246 C71.12456,81.47616 71.00347,81.33944 70.92144,81.2496 C69.70664,79.859 69.03864,78.0816 69.03864,76.234 C69.03864,75.24962 69.22614,74.2848 69.59723,73.3707 C69.98004,72.42539 70.54254,71.5777 71.26913,70.8512 C71.99179,70.12464 72.83943,69.5621 73.78863,69.1793 C74.70269,68.8043 75.66363,68.6168 76.64803,68.6168 L76.65975,68.6168 C78.41365,68.6168 80.12855,69.23008 81.48005,70.3434 C81.67927,70.50746 81.86677,70.67934 82.03864,70.85121 C82.7652,71.57777 83.32774,72.42541 83.71054,73.37071 C84.08554,74.28868 84.27304,75.25351 84.2691899,76.23791 C84.2691899,77.22229 84.08163,78.19101 83.71054,79.10511 C83.32773,80.05042 82.76523,80.89811 82.03864,81.62461 C81.31208,82.35117 80.46834,82.91371 79.52304,83.29651 C78.60898,83.67151 77.64804,83.85901 76.66364,83.85901 L76.648,83.85901 Z M74.0308,73.617 C73.33549,74.31622 72.9488,75.2498 72.9449,76.2381 C72.9449,77.14044 73.27303,78.0076 73.85896,78.6795 C73.92146,78.74981 73.98005,78.81231 74.03084,78.867 C74.73006,79.56231 75.66364,79.9529 76.65584,79.9529 C77.64804,79.9529 78.57774,79.56228 79.28084,78.867 C79.97615,78.16387 80.36674,77.2342 80.36674,76.242 C80.36284,75.24981 79.97611,74.3201 79.27694,73.617 C79.19491,73.53107 79.10116,73.44903 79.0035,73.37091 C78.33553,72.82403 77.5269,72.53497 76.6558,72.53107 C75.66361,72.53107 74.73,72.92169 74.0308,73.61697 L74.0308,73.617 Z" id="Fill-9"></path>
                    <path d="M49.715,35.16 C49.715,37.5702 46.0978,37.5702 46.0978,35.16 C46.0978,32.7498 49.715,32.7498 49.715,35.16" id="Fill-10"></path>
                    <path d="M49.902,60.84 C49.902,63.2502 46.2848,63.2502 46.2848,60.84 C46.2848,58.4298 49.902,58.4298 49.902,60.84" id="Fill-11"></path>
                    <path d="M58.82,38.855 C58.82,41.2652 55.2067,41.2652 55.2067,38.855 C55.2067,36.4448 58.82,36.4448 58.82,38.855" id="Fill-12"></path>
                    <path d="M40.793,57.145 C40.793,59.5552 37.1797,59.5552 37.1797,57.145 C37.1797,54.7348 40.793,54.7348 40.793,57.145" id="Fill-13"></path>
                    <path d="M62.648,47.906 C62.648,50.3162 59.0308,50.3162 59.0308,47.906 C59.0308,45.4958 62.648,45.4958 62.648,47.906" id="Fill-14"></path>
                    <path d="M36.969,48.094 C36.969,50.5042 33.3518,50.5042 33.3518,48.094 C33.3518,45.6838 36.969,45.6838 36.969,48.094" id="Fill-15"></path>
                    <path d="M40.66,38.984 C40.66,41.3981 37.0467,41.3981 37.0467,38.984 C37.0467,36.5738 40.66,36.5738 40.66,38.984" id="Fill-16"></path>
                    <path d="M58.953,57.012 C58.953,59.4222 55.3397,59.4222 55.3397,57.012 C55.3397,54.6018 58.953,54.6018 58.953,57.012" id="Fill-17"></path>
                    <path d="M49.715,35.16 C49.715,37.5702 46.0978,37.5702 46.0978,35.16 C46.0978,32.7498 49.715,32.7498 49.715,35.16" id="Fill-18"></path>
                    <path d="M49.902,60.84 C49.902,63.2502 46.2848,63.2502 46.2848,60.84 C46.2848,58.4298 49.902,58.4298 49.902,60.84" id="Fill-19"></path>
                    <path d="M58.82,38.855 C58.82,41.2652 55.2067,41.2652 55.2067,38.855 C55.2067,36.4448 58.82,36.4448 58.82,38.855" id="Fill-20"></path>
                    <path d="M40.793,57.145 C40.793,59.5552 37.1797,59.5552 37.1797,57.145 C37.1797,54.7348 40.793,54.7348 40.793,57.145" id="Fill-21"></path>
                    <path d="M62.648,47.906 C62.648,50.3162 59.0308,50.3162 59.0308,47.906 C59.0308,45.4958 62.648,45.4958 62.648,47.906" id="Fill-22"></path>
                    <path d="M36.969,48.094 C36.969,50.5042 33.3518,50.5042 33.3518,48.094 C33.3518,45.6838 36.969,45.6838 36.969,48.094" id="Fill-23"></path>
                    <path d="M40.66,38.984 C40.66,41.3981 37.0467,41.3981 37.0467,38.984 C37.0467,36.5738 40.66,36.5738 40.66,38.984" id="Fill-24"></path>
                    <path d="M58.953,57.012 C58.953,59.4222 55.3397,59.4222 55.3397,57.012 C55.3397,54.6018 58.953,54.6018 58.953,57.012" id="Fill-25"></path>
                    <path d="M59.094,69.875 L36.321,69.875 C35.62569,69.875 35.0007,69.51953 34.6413,68.92188 L23.3753,49.97688 C23.10968,49.52766 23.03155,49.00422 23.16046,48.50028 C23.28937,47.99247 23.60577,47.57059 24.05499,47.30498 C24.35968,47.12529 24.70343,47.03154 25.05108,47.03154 C25.73858,47.03154 26.37918,47.39873 26.73078,47.98466 L37.43378,65.97266 L57.97278,65.97266 L68.22678,48.19566 L57.96478,30.42266 L51.81248,30.42266 C50.73438,30.42266 49.85938,29.54766 49.85938,28.46956 C49.85938,27.39146 50.73438,26.51646 51.81248,26.51646 L59.09368,26.51646 C59.78899,26.51646 60.43748,26.89146 60.78508,27.49302 L72.17608,47.22002 C72.52374,47.82158 72.52374,48.57162 72.17608,49.17312 L60.78908,68.90012 C60.43752,69.50168 59.78908,69.87668 59.09378,69.87668 L59.094,69.875 Z M42.047,30.422 C40.9689,30.422 40.0939,29.547 40.0939,28.4689 C40.0939,27.3908 40.9689,26.5158 42.047,26.5158 C43.1251,26.5158 44.0001,27.3908 44.0001,28.4689 C44.0001,29.547 43.1251,30.422 42.047,30.422 Z" id="Fill-26"></path>
                    <path d="M25.055,50.93 C24.94562,50.93 24.83625,50.92219 24.73078,50.90266 L13.01178,48.94956 C12.49616,48.86362 12.04694,48.58628 11.74228,48.1605 C11.43759,47.73862 11.3204,47.21909 11.40634,46.7074 C11.48447,46.24646 11.71884,45.8324 12.07822,45.5316 C12.51181,45.16441 13.09382,45.00816 13.65632,45.10191 L25.37532,47.05501 C25.89094,47.14094 26.34407,47.4222 26.64482,47.84407 C26.94951,48.26595 27.0667,48.78548 26.98076,49.29717 C26.8206,50.24248 26.0081,50.93 25.05496,50.93 L25.055,50.93 Z" id="Fill-27"></path>
                    <path d="M81.691,50.93 L69.972,50.93 C68.8939,50.93 68.0189,50.055 68.0189,48.9769 C68.0189,47.8988 68.8939,47.0238 69.972,47.0238 L81.691,47.0238 C82.7691,47.0238 83.6441,47.8988 83.6441,48.9769 C83.6441,50.055 82.76519,50.93 81.691,50.93 Z" id="Fill-28"></path>
                    <path d="M48.488,84.133 C47.4099,84.133 46.5349,83.258 46.5349,82.1799 L46.5349,68.5079 C46.5349,67.4298 47.4099,66.5548 48.488,66.5548 C49.5661,66.5548 50.4411,67.4298 50.4411,68.5079 L50.4411,82.1799 C50.4411,83.258 49.56219,84.133 48.488,84.133 Z" id="Fill-29"></path>
                    <path d="M48.488,29.445 C47.4099,29.445 46.5349,28.57 46.5349,27.4919 L46.5349,13.8199 C46.5349,12.7418 47.4099,11.8668 48.488,11.8668 C49.5661,11.8668 50.4411,12.7418 50.4411,13.8199 L50.4411,27.4919 C50.4411,28.57 49.56219,29.445 48.488,29.445 Z" id="Fill-30"></path>
                    <path d="M48.094,56.008 C46.9846,56.008 45.9065,55.78144 44.8831,55.33613 C43.89873,54.90644 43.0237,54.29703 42.2737,53.52363 C41.52761,52.75019 40.9378,51.85563 40.5315,50.85563 C40.10962,49.82443 39.89478,48.73063 39.89478,47.60563 C39.89478,46.48063 40.10962,45.38683 40.5315,44.35563 C40.94166,43.35563 41.5315,42.45723 42.2737,41.68763 C43.0237,40.91419 43.8987,40.30483 44.8831,39.87513 C45.9026,39.42982 46.9847,39.20325 48.094,39.20325 L48.10181,39.20325 C49.21121,39.20325 50.29321,39.42591 51.31271,39.87513 C52.29709,40.30482 53.17211,40.91423 53.92211,41.68763 C54.6682,42.46107 55.25801,43.35563 55.66821,44.35563 C56.09009,45.38683 56.30493,46.48063 56.30493,47.60563 C56.30493,48.73063 56.09009,49.82443 55.66821,50.85563 C55.25805,51.85563 54.66821,52.75403 53.92211,53.52363 C53.17211,54.29707 52.29711,54.90643 51.31271,55.33613 C50.29711,55.78144 49.21501,56.008 48.10181,56.008 L48.094,56.008 Z M48.09791,43.117 C46.96511,43.117 45.89481,43.57794 45.08231,44.4139 C44.25809,45.26546 43.80111,46.4022 43.80111,47.6092 C43.80111,48.8162 44.25423,49.953 45.08231,50.8045 C45.89481,51.63653 46.96511,52.0975 48.09791,52.1014 C49.23071,52.1014 50.30101,51.64046 51.11351,50.8045 C51.93773,49.95294 52.39471,48.8162 52.39471,47.6092 C52.39471,46.3983 51.94159,45.2654 51.11351,44.4139 C50.30492,43.57796 49.23071,43.117 48.09791,43.117 Z" id="Fill-31"></path>
                </g>
            </g>
        </g>
    </g>
</svg>