<svg width="32px" height="90px" viewBox="0 0 32 90" version="1.1" xmlns="http://www.w3.org/2000/svg" xmlns:xlink="http://www.w3.org/1999/xlink">
    <g id="Page-1" stroke="none" stroke-width="1" fill="none" fill-rule="evenodd">
        <g id="Homepage-v2" transform="translate(-1106.000000, -7935.000000)" fill="#505050">
            <g id="Group-17" transform="translate(1106.000000, 7935.000000)">
                <polygon id="Fill-1" points="8.305 44.789 11.4027 44.789 11.4027 49.6288 8.305 49.6288"></polygon>
                <polygon id="Fill-2" points="14.449 44.789 17.5467 44.789 17.5467 49.6288 14.449 49.6288"></polygon>
                <polygon id="Fill-3" points="20.598 44.789 23.6957 44.789 23.6957 49.6288 20.598 49.6288"></polygon>
                <polygon id="Fill-4" points="8.305 53.996 11.4027 53.996 11.4027 58.8358 8.305 58.8358"></polygon>
                <polygon id="Fill-5" points="14.449 53.996 17.5467 53.996 17.5467 58.8358 14.449 58.8358"></polygon>
                <polygon id="Fill-6" points="20.598 53.996 23.6957 53.996 23.6957 58.8358 20.598 58.8358"></polygon>
                <polygon id="Fill-7" points="8.305 35.582 11.4027 35.582 11.4027 40.4218 8.305 40.4218"></polygon>
                <polygon id="Fill-8" points="14.449 35.582 17.5467 35.582 17.5467 40.4218 14.449 40.4218"></polygon>
                <polygon id="Fill-9" points="20.598 35.582 23.6957 35.582 23.6957 40.4218 20.598 40.4218"></polygon>
                <polygon id="Fill-10" points="8.305 63.207 11.4027 63.207 11.4027 68.0468 8.305 68.0468"></polygon>
                <polygon id="Fill-11" points="14.449 63.207 17.5467 63.207 17.5467 68.0468 14.449 68.0468"></polygon>
                <polygon id="Fill-12" points="14.449 72.414 17.5467 72.414 17.5467 77.2538 14.449 77.2538"></polygon>
                <polygon id="Fill-13" points="20.598 63.207 23.6957 63.207 23.6957 68.0468 20.598 68.0468"></polygon>
                <polygon id="Fill-14" points="8.305 72.414 11.4027 72.414 11.4027 77.2538 8.305 77.2538"></polygon>
                <polygon id="Fill-15" points="20.598 72.414 23.6957 72.414 23.6957 77.2538 20.598 77.2538"></polygon>
                <path d="M29.73,21.672 L27.5933,21.672 L27.5933,16.5431 C27.5933,15.71498 26.92142,15.0431 26.0933,15.0431 L24.6871,15.0431 L24.6871,9.9142 C24.6871,9.08608 24.01522,8.4142 23.1871,8.4142 L17.3629,8.4142 L17.3629,1.6486 C17.3629,0.82047 16.69102,0.1486 15.8629,0.1486 C15.03478,0.1486 14.3629,0.82047 14.3629,1.6486 L14.3629,8.4181 L8.8082,8.4181 C7.98008,8.4181 7.3082,9.08998 7.3082,9.9181 L7.3082,15.047 L5.902,15.047 C5.07388,15.047 4.402,15.71888 4.402,16.547 L4.402,21.6759 L2.2653,21.6759 C1.43718,21.6759 0.7653,22.34778 0.7653,23.1759 L0.7653,88.355901 C0.7653,89.184021 1.43718,89.855901 2.2653,89.855901 L29.7263,89.855901 C30.55443,89.855901 31.2263,89.184021 31.2263,88.355901 L31.23021,23.1719 C31.23021,22.34378 30.55833,21.6719 29.73021,21.6719 L29.73,21.672 Z M10.312,11.418 L21.691,11.418 L21.691,15.0469 L10.312,15.0469 L10.312,11.418 Z M7.4058,18.0469 L24.5968,18.0469 L24.5968,21.6758 L7.4058,21.6719 L7.4058,18.0469 Z M28.2298,86.851902 L3.7688,86.851902 L3.7688,24.6719 L28.2298,24.6719 L28.2298,86.851902 Z" id="Fill-16"></path>
            </g>
        </g>
    </g>
</svg>