<svg width="97px" height="97px" viewBox="0 0 97 97" version="1.1" xmlns="http://www.w3.org/2000/svg" xmlns:xlink="http://www.w3.org/1999/xlink">
    <g id="Page-1" stroke="none" stroke-width="1" fill="none" fill-rule="evenodd">
        <g id="Homepage-v2" transform="translate(-491.000000, -3226.000000)">
            <circle id="Oval" fill="#FFD200" cx="540" cy="3275" r="24"></circle>
            <path d="M578.901931,3269.80606 C579.551202,3271.62087 581.272166,3272.93505 583.30597,3272.93505 C585.895185,3272.93505 588,3270.83077 588,3268.24156 C588,3265.65235 585.895185,3263.54806 583.30597,3263.54806 C581.268161,3263.54806 579.547257,3264.86224 578.901931,3266.67706 L553.58051,3266.67706 C553.58051,3265.60149 553.44753,3264.55715 553.216764,3263.54806 L569.225261,3263.54806 C569.639852,3263.54806 570.038803,3263.38379 570.332178,3263.09045 L576.132605,3257.29004 L578.901751,3257.29004 C579.551022,3259.10486 581.271986,3260.41904 583.30579,3260.41904 C585.895005,3260.41904 588,3258.31475 588,3255.72554 C588,3253.13633 585.895005,3251.03204 583.30579,3251.03204 C581.26798,3251.03204 579.547077,3252.34622 578.901751,3254.16104 L575.483274,3254.16104 C575.068683,3254.16104 574.669732,3254.32531 574.376357,3254.61866 L568.57593,3260.41907 L552.093826,3260.41907 C550.994719,3258.22096 549.352016,3256.33965 547.322117,3254.97852 L547.322117,3247.42587 L558.824845,3243.11176 C559.431091,3242.88099 559.837842,3242.29822 559.837842,3241.64508 L559.837842,3235.09762 C561.652665,3234.45227 562.966848,3232.7313 562.966848,3230.6936 C562.966848,3228.10439 560.862554,3226 558.273339,3226 C555.684123,3226 553.579829,3228.10439 553.579829,3230.6936 C553.579829,3232.7314 554.894012,3234.4523 556.708835,3235.09762 L556.708835,3240.5577 L547.321816,3244.07779 L547.321816,3241.35551 C549.13664,3240.70625 550.450823,3238.98529 550.450823,3236.95149 C550.450823,3234.36228 548.346528,3232.25799 545.757313,3232.25799 C543.168098,3232.25799 541.063804,3234.36228 541.063804,3236.95149 C541.063804,3238.98929 542.377986,3240.71019 544.19281,3241.35551 L544.19281,3253.41792 C542.722127,3252.89381 541.145909,3252.59656 539.499301,3252.59656 C537.852692,3252.59656 536.276374,3252.89382 534.805791,3253.41792 L534.805791,3235.09752 C536.620615,3234.45217 537.934797,3232.7312 537.934797,3230.6935 C537.934797,3228.10429 535.830503,3226 533.241288,3226 C530.652073,3226 528.547778,3228.10429 528.547778,3230.6935 C528.547778,3232.7313 529.861961,3234.4522 531.676785,3235.09752 L531.676785,3254.97491 C530.495572,3255.7689 529.43952,3256.73886 528.547778,3257.84578 L528.547778,3244.77408 C528.547778,3244.35949 528.383508,3243.96054 528.090163,3243.66717 L522.289736,3237.86676 L522.289736,3235.09762 C524.104559,3234.45227 525.418742,3232.7313 525.418742,3230.6936 C525.418742,3228.10439 523.314448,3226 520.725233,3226 C518.136017,3226 516.031723,3228.10439 516.031723,3230.6936 C516.031723,3232.7314 517.345906,3234.4523 519.160729,3235.09762 L519.160729,3238.51609 C519.160729,3238.93068 519.325,3239.32963 519.618345,3239.623 L525.418772,3245.42341 L525.418772,3266.67756 L512.422131,3266.67756 L508.108008,3255.17887 C507.881157,3254.56871 507.298381,3254.16197 506.645235,3254.16197 L500.097752,3254.16197 C499.452395,3252.34715 497.731419,3251.03298 495.693711,3251.03298 C493.104496,3251.03298 491,3253.13726 491,3255.72647 C491,3258.31568 493.104496,3260.41997 495.693711,3260.41997 C497.73152,3260.41997 499.452425,3259.10579 500.097752,3257.29097 L505.557843,3257.29097 L509.07795,3266.67796 L506.355664,3266.67796 C505.710308,3264.86314 503.989334,3263.54896 501.951625,3263.54896 C499.362408,3263.54896 497.258114,3265.65325 497.258114,3268.24246 C497.258114,3270.83167 499.362408,3272.93595 501.951625,3272.93595 C503.989434,3272.93595 505.710338,3271.62178 506.355664,3269.80696 L525.419073,3269.80696 L525.419073,3274.50045 L523.854569,3274.50045 C522.990183,3274.50045 522.290066,3275.20057 522.290066,3276.06495 L522.290066,3279.19395 L500.097651,3279.19395 C499.452295,3277.37913 497.731319,3276.06495 495.693611,3276.06495 C493.104395,3276.06495 491,3278.16924 491,3280.75845 C491,3283.34765 493.104395,3285.45194 495.693611,3285.45194 C497.73142,3285.45194 499.452325,3284.13776 500.097651,3282.32294 L522.290066,3282.32294 L522.290066,3285.45194 L509.774041,3285.45194 C509.35945,3285.45194 508.960499,3285.61621 508.667124,3285.90956 L502.866697,3291.70997 L500.097551,3291.70997 C499.452195,3289.89515 497.731219,3288.58097 495.693509,3288.58097 C493.104294,3288.58097 491,3290.68526 491,3293.27446 C491,3295.86367 493.104294,3297.96796 495.693509,3297.96796 C497.731319,3297.96796 499.452225,3296.65378 500.097551,3294.83896 L503.516028,3294.83896 C503.930619,3294.83896 504.32957,3294.67469 504.622946,3294.38135 L510.423372,3288.58094 L522.290567,3288.58094 L522.290567,3294.83893 C522.290567,3295.70332 522.990683,3296.40343 523.85507,3296.40343 L531.677586,3296.40343 L531.677586,3301.57804 L520.174858,3305.89215 C519.568612,3306.119 519.161861,3306.70178 519.161861,3307.35492 L519.161861,3313.90238 C517.347037,3314.55165 516.032855,3316.27261 516.032855,3318.30641 C516.032855,3320.89561 518.137149,3323 520.726364,3323 C523.315579,3323 525.419874,3320.89561 525.419874,3318.30641 C525.419874,3316.2686 524.105691,3314.54771 522.290867,3313.90238 L522.290867,3308.44231 L531.677886,3304.92221 L531.677886,3307.64449 C529.863063,3308.29376 528.54888,3310.01472 528.54888,3312.04852 C528.54888,3314.63772 530.653174,3316.74201 533.242389,3316.74201 C535.831605,3316.74201 537.935899,3314.63772 537.935899,3312.04852 C537.935899,3310.01071 536.621716,3308.28981 534.806893,3307.64449 L534.806893,3296.40313 L544.193911,3296.40313 L544.193911,3313.90248 C542.379088,3314.55175 541.064905,3316.27271 541.064905,3318.3065 C541.064905,3320.89571 543.169199,3323 545.758415,3323 C548.34763,3323 550.451924,3320.89571 550.451924,3318.3065 C550.451924,3316.2687 549.137741,3314.54781 547.322918,3313.90248 L547.322918,3296.40313 L550.451924,3296.40313 L550.451924,3304.22562 C550.451924,3304.64021 550.616194,3305.03916 550.90954,3305.33254 L556.709967,3311.13295 L556.709967,3313.90208 C554.895143,3314.55135 553.580961,3316.27231 553.580961,3318.30611 C553.580961,3320.89531 555.685255,3323 558.27447,3323 C560.863685,3323 562.967979,3320.89531 562.967979,3318.30611 C562.967979,3316.2683 561.653797,3314.54741 559.838973,3313.90208 L559.838973,3310.48362 C559.838973,3310.06903 559.674703,3309.67008 559.381357,3309.3767 L553.58093,3303.57629 L553.58093,3296.40303 L555.145434,3296.40303 C556.00982,3296.40303 556.709937,3295.70292 556.709937,3294.83853 L556.709937,3282.32254 L566.578072,3282.32254 L570.892195,3293.82123 C571.119046,3294.43139 571.701822,3294.83813 572.354968,3294.83813 L578.902452,3294.83813 C579.551723,3296.65295 581.272686,3297.96713 583.306491,3297.96713 C585.895706,3297.96713 588,3295.86284 588,3293.27363 C588,3290.68443 585.895706,3288.58014 583.306491,3288.58014 C581.268681,3288.58014 579.547778,3289.89432 578.902452,3291.70913 L573.442361,3291.70913 L569.922254,3282.32214 L572.644539,3282.32214 C573.29381,3284.13696 575.014774,3285.45114 577.048578,3285.45114 C579.637793,3285.45114 581.742087,3283.34685 581.742087,3280.75765 C581.742087,3278.16844 579.637793,3276.06415 577.048578,3276.06415 C575.010769,3276.06415 573.289865,3277.37833 572.644539,3279.19315 L556.710137,3279.19315 L556.710137,3276.06415 C556.710137,3275.19977 556.010021,3274.49965 555.145634,3274.49965 L553.581131,3274.49965 L553.581131,3269.80616 L578.901931,3269.80606 Z M583.30597,3266.67706 C584.170357,3266.67706 584.870473,3267.38108 584.870473,3268.24156 C584.870473,3269.10204 584.170357,3269.80606 583.30597,3269.80606 C582.441583,3269.80606 581.741467,3269.10204 581.741467,3268.24156 C581.741467,3267.38108 582.441583,3266.67706 583.30597,3266.67706 Z M583.30597,3254.16107 C584.170357,3254.16107 584.870473,3254.86509 584.870473,3255.72557 C584.870473,3256.58605 584.170357,3257.29007 583.30597,3257.29007 C582.441583,3257.29007 581.741467,3256.58605 581.741467,3255.72557 C581.741467,3254.86509 582.441583,3254.16107 583.30597,3254.16107 Z M558.273919,3229.1291 C559.138306,3229.1291 559.838422,3229.83312 559.838422,3230.6936 C559.838422,3231.55407 559.138306,3232.25809 558.273919,3232.25809 C557.409533,3232.25809 556.709416,3231.55407 556.709416,3230.6936 C556.709416,3229.83312 557.409533,3229.1291 558.273919,3229.1291 Z M545.757894,3235.38709 C546.622281,3235.38709 547.322397,3236.09111 547.322397,3236.95159 C547.322397,3237.81207 546.622281,3238.51609 545.757894,3238.51609 C544.893507,3238.51609 544.193391,3237.81207 544.193391,3236.95159 C544.193391,3236.09111 544.893507,3235.38709 545.757894,3235.38709 Z M533.241869,3229.1291 C534.106255,3229.1291 534.806372,3229.83312 534.806372,3230.6936 C534.806372,3231.55407 534.106255,3232.25809 533.241869,3232.25809 C532.377482,3232.25809 531.677366,3231.55407 531.677366,3230.6936 C531.677366,3229.83312 532.377482,3229.1291 533.241869,3229.1291 Z M520.725843,3229.1291 C521.59023,3229.1291 522.290347,3229.83312 522.290347,3230.6936 C522.290347,3231.55407 521.59023,3232.25809 520.725843,3232.25809 C519.861457,3232.25809 519.16134,3231.55407 519.16134,3230.6936 C519.16134,3229.83312 519.861457,3229.1291 520.725843,3229.1291 Z M495.69379,3257.29007 C494.829403,3257.29007 494.129287,3256.58605 494.129287,3255.72557 C494.129287,3254.86509 494.829403,3254.16107 495.69379,3254.16107 C496.558177,3254.16107 497.258293,3254.86509 497.258293,3255.72557 C497.258293,3256.58605 496.558177,3257.29007 495.69379,3257.29007 Z M501.951805,3269.80606 C501.087419,3269.80606 500.387302,3269.10204 500.387302,3268.24156 C500.387302,3267.38108 501.087419,3266.67706 501.951805,3266.67706 C502.816192,3266.67706 503.516309,3267.38108 503.516309,3268.24156 C503.516309,3269.10204 502.816192,3269.80606 501.951805,3269.80606 Z M495.69379,3282.32204 C494.829403,3282.32204 494.129287,3281.61802 494.129287,3280.75755 C494.129287,3279.89707 494.829403,3279.19305 495.69379,3279.19305 C496.558177,3279.19305 497.258293,3279.89707 497.258293,3280.75755 C497.258293,3281.61802 496.558177,3282.32204 495.69379,3282.32204 Z M495.69379,3294.83803 C494.829403,3294.83803 494.129287,3294.13401 494.129287,3293.27353 C494.129287,3292.41305 494.829403,3291.70903 495.69379,3291.70903 C496.558177,3291.70903 497.258293,3292.41305 497.258293,3293.27353 C497.258293,3294.13401 496.558177,3294.83803 495.69379,3294.83803 Z M520.725843,3319.87001 C519.861457,3319.87001 519.16134,3319.16599 519.16134,3318.30551 C519.16134,3317.44503 519.861457,3316.74101 520.725843,3316.74101 C521.59023,3316.74101 522.290347,3317.44503 522.290347,3318.30551 C522.290347,3319.16599 521.59023,3319.87001 520.725843,3319.87001 Z M533.241869,3313.61201 C532.377482,3313.61201 531.677366,3312.90799 531.677366,3312.04751 C531.677366,3311.18703 532.377482,3310.48302 533.241869,3310.48302 C534.106255,3310.48302 534.806372,3311.18703 534.806372,3312.04751 C534.806372,3312.90799 534.106255,3313.61201 533.241869,3313.61201 Z M545.757894,3319.87001 C544.893507,3319.87001 544.193391,3319.16599 544.193391,3318.30551 C544.193391,3317.44503 544.893507,3316.74101 545.757894,3316.74101 C546.622281,3316.74101 547.322397,3317.44503 547.322397,3318.30551 C547.322397,3319.16599 546.622281,3319.87001 545.757894,3319.87001 Z M558.273919,3319.87001 C557.409533,3319.87001 556.709416,3319.16599 556.709416,3318.30551 C556.709416,3317.44503 557.409533,3316.74101 558.273919,3316.74101 C559.138306,3316.74101 559.838422,3317.44503 559.838422,3318.30551 C559.838422,3319.16599 559.138306,3319.87001 558.273919,3319.87001 Z M583.30597,3291.70903 C584.170357,3291.70903 584.870473,3292.41305 584.870473,3293.27353 C584.870473,3294.13401 584.170357,3294.83803 583.30597,3294.83803 C582.441583,3294.83803 581.741467,3294.13401 581.741467,3293.27353 C581.741467,3292.41305 582.441583,3291.70903 583.30597,3291.70903 Z M577.047957,3279.19305 C577.912344,3279.19305 578.61246,3279.89707 578.61246,3280.75755 C578.61246,3281.61802 577.912344,3282.32204 577.047957,3282.32204 C576.18357,3282.32204 575.483454,3281.61802 575.483454,3280.75755 C575.483454,3279.89707 576.18357,3279.19305 577.047957,3279.19305 Z M537.935879,3285.45104 C537.935879,3284.59056 538.635995,3283.88654 539.500382,3283.88654 C540.364769,3283.88654 541.064885,3284.59056 541.064885,3285.45104 C541.064885,3286.31152 540.364769,3287.01554 539.500382,3287.01554 C538.635995,3287.01554 537.935879,3286.31152 537.935879,3285.45104 Z M553.58091,3293.27353 L541.064885,3293.27353 L541.064885,3289.85507 C542.879709,3289.2058 544.193891,3287.48484 544.193891,3285.45104 C544.193891,3282.86183 542.089597,3280.75755 539.500382,3280.75755 C536.911167,3280.75755 534.806873,3282.86183 534.806873,3285.45104 C534.806873,3287.48884 536.121055,3289.20974 537.935879,3289.85507 L537.935879,3293.27353 L525.419854,3293.27353 L525.419854,3277.62855 L553.58091,3277.62855 L553.58091,3293.27353 Z M544.193891,3274.49955 L534.806873,3274.49955 L534.806873,3266.67706 C534.806873,3264.08785 536.911167,3261.98356 539.500382,3261.98356 C542.089597,3261.98356 544.193891,3264.08785 544.193891,3266.67706 L544.193891,3274.49955 Z M547.322898,3274.49955 L547.322898,3266.67706 C547.322898,3262.36295 543.814506,3258.85457 539.500382,3258.85457 C535.186258,3258.85457 531.677866,3262.36295 531.677866,3266.67706 L531.677866,3274.49955 L528.54886,3274.49955 L528.54886,3266.67706 C528.54886,3260.63815 533.46135,3255.72507 539.500883,3255.72507 C545.540416,3255.72507 550.452905,3260.63754 550.452905,3266.67706 L550.452905,3274.49955 L547.322898,3274.49955 Z" id="Fill-1" fill="#505050"></path>
        </g>
    </g>
</svg>