<svg width="72px" height="70px" viewBox="0 0 72 70" version="1.1" xmlns="http://www.w3.org/2000/svg" xmlns:xlink="http://www.w3.org/1999/xlink">
    <g id="Page-1" stroke="none" stroke-width="1" fill="none" fill-rule="evenodd">
        <g id="Homepage-v2" transform="translate(-283.000000, -7945.000000)" fill="#505050">
            <g id="Group-14" transform="translate(283.000000, 7945.000000)">
                <path d="M69.699,64.602 L2.30099,64.602 L2.30099,34.602 L69.602,34.602 L69.602,64.602 L69.699,64.602 Z M5.601,61.3989 L66.402,61.3989 L66.39809,37.8009 L5.601,37.8009 L5.601,61.3989 Z" id="Fill-1"></path>
                <polygon id="Fill-2" points="5.602 37.801 2.3012 37.801 2.3012 27.301 26.3012 27.301 26.3012 30.5002 5.6022 30.5002"></polygon>
                <polygon id="Fill-3" points="69.699 37.801 66.3982 37.801 66.3982 30.5002 45.6992 30.5002 45.6992 27.301 69.6992 27.301"></polygon>
                <polygon id="Fill-4" points="0.699 66.199 71.301 66.199 71.301 69.3982 0.699 69.3982"></polygon>
                <polygon id="Fill-5" points="48.301 35.398 51.5002 35.398 51.5002 63.796 48.301 63.796"></polygon>
                <polygon id="Fill-6" points="39 35.398 42.1992 35.398 42.1992 63.796 39 63.796"></polygon>
                <polygon id="Fill-7" points="29.801 35.398 33.0002 35.398 33.0002 63.796 29.801 63.796"></polygon>
                <polygon id="Fill-8" points="20.5 35.398 23.6992 35.398 23.6992 63.796 20.5 63.796"></polygon>
                <polygon id="Fill-9" points="11.301 35.398 14.5002 35.398 14.5002 63.796 11.301 63.796"></polygon>
                <polygon id="Fill-10" points="57.5 36.199 60.6992 36.199 60.6992 64.597 57.5 64.597"></polygon>
                <polygon id="Fill-11" points="34.398 1.301 37.5972 1.301 37.5972 20 34.398 20"></polygon>
                <path d="M52.199,11.898 L34.398,11.898 L34.398,0.5 L52.199,0.5 L52.199,11.898 Z M37.601,8.6011 L48.999,8.6011 L48.999,3.7027 L37.601,3.69879 L37.601,8.6011 Z" id="Fill-12"></path>
                <polygon id="Fill-13" points="53.199 37.398 36 22 18.801 37.398 16.6018 34.9996 35.9998 17.6016 55.3978 34.9996"></polygon>
            </g>
        </g>
    </g>
</svg>