<svg width="90px" height="74px" viewBox="0 0 90 74" version="1.1" xmlns="http://www.w3.org/2000/svg" xmlns:xlink="http://www.w3.org/1999/xlink">
    <g id="Page-1" stroke="none" stroke-width="1" fill="none" fill-rule="evenodd">
        <g id="Homepage-v2" transform="translate(-136.000000, -3616.000000)">
            <circle id="Oval-Copy-4" fill="#FFD200" cx="181" cy="3653" r="24"></circle>
            <g id="Group-10" transform="translate(136.000000, 3616.000000)" fill="#505050">
                <path d="M88.625,20.984 C86.293,16.1246 81.3008,12.984 75.906,12.984 C75.39819,12.984 74.8943,13.01135 74.3943,13.06603 C73.72242,7.29653 69.4881,2.26103 63.5623,0.89803 C62.5193,0.65975 61.4529,0.53865 60.3943,0.53865 C59.074,0.53865 57.7615,0.72615 56.492,1.09334 C50.7889,2.74564 46.8045,8.18314 46.8045,14.30834 L46.8045,59.64034 C46.8045,66.87474 52.2928,72.93334 59.3005,73.42934 C59.62862,73.45278 59.96066,73.4645 60.28878,73.4645 C61.33958,73.4645 62.39428,73.34341 63.41768,73.10903 C69.34348,71.77313 73.59768,66.76133 74.29268,60.99603 C74.81221,61.05462 75.33178,61.08197 75.85908,61.08197 C81.23018,61.08197 86.21408,57.96087 88.55808,53.12887 C91.21428,47.65227 89.94868,41.19487 85.86668,37.05487 C89.97218,32.93377 91.26508,26.47687 88.62448,20.98487 L88.625,20.984 Z M85.918,51.843 C83.9883,55.8196 80.0078,58.1399 75.867,58.1399 C74.3123,58.1399 72.7342,57.81178 71.2342,57.1243 C72.449,63.0579 68.699,68.9013 62.7615,70.2373 C61.93728,70.42871 61.1013,70.51855 60.2888,70.51855 C60.02708,70.51855 59.76536,70.51074 59.50755,70.49121 C53.93725,70.09668 49.74195,65.21781 49.74195,59.63621 L49.74195,56.06591 L49.74586,48.10111 L49.74586,14.30411 C49.74586,9.56581 52.76146,5.23381 57.30836,3.91311 C58.29664,3.62795 59.33176,3.47561 60.39036,3.47561 C61.21848,3.47561 62.05836,3.56936 62.90206,3.76077 C68.82786,5.12407 72.55436,10.98347 71.31226,16.91677 C72.80056,16.24099 74.36696,15.92068 75.90606,15.92068 C80.06626,15.92068 84.05446,18.25658 85.97206,22.25268 C88.60876,27.74098 86.35097,34.31168 80.94086,37.03768 C86.34706,39.79548 88.56976,46.37358 85.91746,51.84268 L85.918,51.843 Z" id="Fill-1"></path>
                <path d="M12.645,35.445 L21.2544,35.445 L21.2544,44.6169 L31.2192,44.6169 L31.2192,42.656 L23.2153,42.656 L23.2153,33.4841 L14.602,33.4841 L14.602,27.9489 L16.6528,27.9489 L16.6528,27.14031 L16.65671,21.69111 L10.39891,21.69111 L10.39891,27.94891 L12.64501,27.94891 L12.645,35.445 Z M12.35984,25.9841 L12.35984,23.6482 L14.69574,23.6482 L14.69574,25.9841 L12.35984,25.9841 Z" id="Fill-2"></path>
                <path d="M14.605,53.512 L14.605,46.6643 L16.6558,46.6643 L16.6558,40.4065 L10.398,40.4065 L10.398,46.6643 L12.6441,46.6643 L12.6441,55.4729 L22.4214,55.4729 L22.4214,53.512 L14.605,53.512 Z M12.3589,44.7034 L12.3589,42.3714 L14.6948,42.3714 L14.6948,44.7073 L12.3589,44.7034 Z" id="Fill-3"></path>
                <path d="M34.922,39.145 L33.94153,39.145 L33.94153,61.356 L31.12123,61.356 L31.12123,59.2076 L24.86733,59.2076 L24.86733,65.4654 L31.12513,65.4654 L31.12513,63.317 L35.90633,63.317 L35.90242,39.145 L34.922,39.145 Z M29.1564,63.504 L26.8205,63.504 L26.8205,61.1681 L29.1564,61.1681 L29.1564,63.504 Z" id="Fill-4"></path>
                <path d="M29.715,17.031 L29.715,14.8826 L33.1838,14.8826 L33.1838,25.2736 L35.1447,25.2736 L35.1447,12.9216 L29.715,12.9216 L29.715,10.7732 L23.4572,10.7732 L23.4572,17.031 L29.715,17.031 Z M27.7541,15.0701 L25.4182,15.0701 L25.4182,12.7342 L27.7541,12.7342 L27.7541,15.0701 Z" id="Fill-5"></path>
                <path d="M63.445,46.848 L62.46453,46.848 L62.46453,61.215 L58.73013,61.215 L58.73013,59.0666 L52.47233,59.0666 L52.47233,65.3244 L58.73013,65.3244 L58.73013,63.176 L64.42153,63.176 L64.42153,46.848 L63.445,46.848 Z M56.7731,63.364 L54.4372,63.364 L54.4372,61.0281 L56.7731,61.0281 L56.7731,63.364 Z" id="Fill-6"></path>
                <path d="M77.613,30.398 L77.613,22.5855 L61.031,22.67534 L55.8552,22.67534 L55.8552,13.76124 L59.8513,13.76124 L59.8513,15.90964 L66.1091,15.90964 L66.1091,9.65184 L59.8513,9.65184 L59.8513,11.80024 L53.8943,11.80024 L53.8943,42.59324 L52.4724,42.59324 L52.4724,48.85104 L58.7302,48.85104 L58.7302,42.59324 L55.8552,42.59324 L55.8552,42.05027 L55.8591,24.63627 L67.1481,24.63627 L67.1481,35.21827 L65.3708,35.21827 L65.3708,40.73387 L70.8903,40.73387 L70.8903,35.21437 L69.113,35.21437 L69.1091,24.54637 L75.656,24.54637 L75.656,30.39797 L73.8787,30.39797 L73.8787,35.91357 L79.3982,35.91357 L79.3982,30.39797 L77.613,30.398 Z M61.812,11.617 L64.1479,11.617 L64.1479,13.9529 L61.812,13.9529 L61.812,11.617 Z M56.7729,44.555 L56.7729,46.8909 L54.437,46.8909 L54.437,44.555 L56.7729,44.555 Z M68.9249,38.7777 L67.3272,38.7777 L67.3272,37.18 L68.9249,37.18 L68.9249,38.7777 Z M77.4327,33.9535 L75.835,33.9535 L75.835,32.3558 L77.4327,32.3558 L77.4327,33.9535 Z" id="Fill-7"></path>
                <path d="M73.875,46.035 L73.875,46.85531 L75.6523,46.85531 L75.6523,52.39051 L68.125,52.39051 L68.125,54.35141 L77.6133,54.35141 L77.6133,46.85531 L79.3906,46.85531 L79.3906,41.33971 L73.875,41.33971 L73.875,46.035 Z M75.8359,43.3006 L77.4336,43.3006 L77.4336,44.8983 L75.8359,44.8983 L75.8359,43.3006 Z" id="Fill-8"></path>
                <path d="M33.512,1.09 C32.2425,0.71891 30.9339,0.53922 29.6136,0.53922 C28.555,0.53922 27.4847,0.66031 26.4417,0.8986 C20.512,2.258 16.2817,7.297 15.6017,13.0706 C15.11342,13.01201 14.6017,12.99248 14.09,12.99248 C8.6994,12.99248 3.711001,16.13308 1.371001,20.99248 C-1.257899,26.48078 0.031201,32.93348 4.132701,37.05148 C0.054601,41.19208 -1.218899,47.65348 1.441301,53.12948 C3.781101,57.95758 8.7616,61.07868 14.1403,61.07868 C14.65983,61.07868 15.1911,61.04743 15.6989,60.98883 C16.39812,66.75833 20.6598,71.76983 26.5899,73.10983 C27.6094,73.3403 28.6602,73.46139 29.711,73.46139 C30.03912,73.46139 30.37116,73.44967 30.69928,73.43014 C37.71098,72.93014 43.19928,66.87154 43.19928,59.64114 L43.19928,14.30914 C43.19928,8.18024 39.21098,2.75014 33.51178,1.09014 L33.512,1.09 Z M40.25035,59.641 C40.25035,65.2191 36.0589,70.102 30.4886,70.493 C30.22688,70.51253 29.96907,70.52425 29.70735,70.52425 C28.89876,70.52425 28.06675,70.43441 27.23855,70.243 C21.30885,68.9032 17.54715,63.0633 18.76975,57.134 C17.26975,57.81369 15.69165,58.1457 14.14085,58.1457 C9.99245,58.1457 6.01195,55.8254 4.081851,51.8449 C1.433451,46.3761 3.652161,39.8059 9.06235,37.0439 C3.640452,34.3251 1.390452,27.7548 4.031152,22.2629 C5.94135,18.2629 9.92955,15.9348 14.09015,15.9348 C15.62925,15.9348 17.19955,16.25511 18.69175,16.92308 C17.45345,10.99338 21.17225,5.13408 27.10195,3.77508 C27.94179,3.57586 28.78165,3.48602 29.61365,3.48602 C30.67225,3.48602 31.70345,3.63446 32.69175,3.92743 C37.24255,5.24773 40.25035,9.57583 40.25035,14.31843 L40.25035,31.64643 L32.75035,31.64643 L32.75035,29.49803 L26.48865,29.49803 L26.48865,35.75973 L32.75035,35.75973 L32.75035,33.60353 L40.25035,33.60353 L40.25035,59.641 Z M30.7894,31.45 L30.7894,33.7898 L28.4613,33.7898 L28.4613,31.45 L30.7894,31.45 Z" id="Fill-9"></path>
            </g>
        </g>
    </g>
</svg>