<svg width="92px" height="86px" viewBox="0 0 92 86" version="1.1" xmlns="http://www.w3.org/2000/svg" xmlns:xlink="http://www.w3.org/1999/xlink">
    <g id="Page-1" stroke="none" stroke-width="1" fill="none" fill-rule="evenodd">
        <g id="Homepage-v2" transform="translate(-854.000000, -3231.000000)">
            <g id="Group-2" transform="translate(854.000000, 3231.000000)">
                <rect id="Rectangle" fill="#FFD200" x="8" y="58" width="27" height="24"></rect>
                <circle id="Oval" fill="#FFD200" cx="72" cy="20" r="18"></circle>
                <g id="Group-7" fill="#505050">
                    <path d="M6.832,85.066002 L35.539,85.066002 L35.539,56.359 L6.832,56.359 L6.832,85.066002 Z M10.8359,60.359 L31.5389,60.359 L31.5389,81.066 L10.8359,81.066 L10.8359,60.359 Z" id="Fill-1"></path>
                    <polygon id="Fill-2" points="70.172 71.184 72.34 71.184 72.34 73.352 70.172 73.352"></polygon>
                    <path d="M71.258,40.703 C81.992,40.703 90.727,31.9686 90.727,21.234 C90.727,10.496 81.9926,1.761 71.258,1.761 C60.524,1.761 51.785,10.4954 51.785,21.234 C51.785,31.968 60.5194,40.703 71.258,40.703 Z M61.3986,33.1444 L81.1136,33.1444 C78.4339,35.3632 75.0003,36.6991 71.2542,36.6991 C67.512,36.6991 64.0784,35.3632 61.3986,33.1444 L61.3986,33.1444 Z M63.3439,29.1444 L63.3439,13.3204 L79.1639,13.3204 L79.1639,29.1404 L63.3439,29.1404 L63.3439,29.1444 Z M86.7229,21.2342 C86.7229,24.9764 85.387,28.4139 83.1682,31.0897 L83.1682,11.3747 C85.3909,14.0544 86.7229,17.488 86.7229,21.2341 L86.7229,21.2342 Z M81.1135,9.3202 L61.3985,9.3202 C64.0782,7.1014 67.5118,5.7655 71.2579,5.7655 C75.0001,5.7655 78.4337,7.1014 81.1135,9.3202 L81.1135,9.3202 Z M59.3435,11.3749 L59.3435,31.0899 C57.1247,28.4102 55.7849,24.9766 55.7849,21.2344 C55.7849,17.4883 57.1247,14.0547 59.3435,11.3749 L59.3435,11.3749 Z" id="Fill-3"></path>
                    <path d="M32.75,12.496 L21.188,0.934 L9.622,12.496 L0.8876,21.2343 L21.1886,41.5353 L41.4856,21.2343 L32.75,12.496 Z M27.0898,12.496 L21.1836,18.4022 L15.2813,12.496 L21.1875,6.5898 L27.0898,12.496 Z M12.4528,15.328 L19.1872,22.0624 L19.1872,33.8744 L6.5462,21.2334 L12.4528,15.328 Z M35.8278,21.2342 L23.1868,33.8712 L23.1868,22.0592 L29.9212,15.3248 L35.8278,21.2342 Z" id="Fill-4"></path>
                    <path d="M11.254,78.312 L31.113,78.312 L21.1833,61.113 L11.254,78.312 Z M18.1876,74.312 L21.1876,69.1167 L24.1876,74.312 L18.1876,74.312 Z" id="Fill-5"></path>
                    <path d="M71.258,50.348 L51.399,84.743 L91.114,84.743 L71.258,50.348 Z M71.258,58.3558 L84.184,80.7428 L58.329,80.7428 L71.258,58.3558 Z" id="Fill-6"></path>
                </g>
            </g>
        </g>
    </g>
</svg>