<svg width="75px" height="84px" viewBox="0 0 75 84" version="1.1" xmlns="http://www.w3.org/2000/svg" xmlns:xlink="http://www.w3.org/1999/xlink">
    <g id="Page-1" stroke="none" stroke-width="1" fill="none" fill-rule="evenodd">
        <g id="Homepage-v2" transform="translate(-1222.000000, -3232.000000)">
            <circle id="Oval-Copy" fill="#FFD200" cx="1259.5" cy="3274.5" r="6.5"></circle>
            <circle id="Oval-Copy-5" fill="#FFD200" cx="1259.5" cy="3307.5" r="6.5"></circle>
            <circle id="Oval-Copy-7" fill="#FFD200" cx="1230.5" cy="3257.5" r="6.5"></circle>
            <circle id="Oval-Copy-6" fill="#FFD200" cx="1288.5" cy="3257.5" r="6.5"></circle>
            <path d="M1297,3256.91459 C1297,3252.60001 1293.47874,3249.08561 1289.15573,3249.08561 C1286.63662,3249.08561 1284.41229,3250.29758 1282.98175,3252.14505 L1266.75477,3242.79815 C1267.13205,3241.88033 1267.34819,3240.88009 1267.34819,3239.82898 C1267.34819,3235.5144 1263.83085,3232 1259.50392,3232 C1255.177,3231.99609 1251.65573,3235.51049 1251.65573,3239.82507 C1251.65573,3240.87627 1251.87188,3241.87647 1252.24916,3242.79423 L1236.02217,3252.14113 C1234.58379,3250.29376 1232.36338,3249.0817 1229.84427,3249.0817 C1225.52126,3249.0817 1222,3252.59218 1222,3256.91068 C1222,3260.86829 1224.97104,3264.116 1228.79885,3264.63372 L1228.79885,3283.35845 C1224.97104,3283.87227 1222,3287.11996 1222,3291.08149 C1222,3295.39607 1225.51734,3298.91439 1229.84427,3298.91439 C1232.36338,3298.91439 1234.58379,3297.70242 1236.02217,3295.85495 L1252.24916,3305.20185 C1251.87188,3306.11967 1251.65573,3307.11991 1251.65573,3308.1671 C1251.65573,3312.4856 1255.17307,3316 1259.5,3316 C1263.82693,3316 1267.34427,3312.4856 1267.34427,3308.1671 C1267.34427,3307.11589 1267.12812,3306.1157 1266.75084,3305.20185 L1282.97783,3295.85495 C1284.41229,3297.70232 1286.6327,3298.91439 1289.15181,3298.91439 C1293.47874,3298.91439 1297,3295.39999 1297,3291.08149 C1297,3287.11996 1294.02896,3283.87617 1290.20115,3283.35845 L1290.20115,3264.63372 C1294.02896,3264.12382 1297,3260.87612 1297,3256.91459 Z M1289.15573,3251.17628 C1292.32718,3251.17628 1294.90525,3253.74932 1294.90525,3256.91459 C1294.90525,3260.07986 1292.33111,3262.65291 1289.15573,3262.65291 C1285.98428,3262.65291 1283.41013,3260.07986 1283.41013,3256.91459 C1283.40621,3253.75324 1285.98428,3251.17628 1289.15573,3251.17628 Z M1282.9739,3286.3243 L1266.75497,3276.96957 C1267.13225,3276.05175 1267.34839,3275.05151 1267.34839,3274.00432 C1267.34839,3272.95311 1267.13225,3271.95291 1266.75497,3271.03515 L1282.9739,3261.68825 C1284.20796,3263.27285 1286.0196,3264.36331 1288.10257,3264.64567 L1288.10257,3283.3704 C1286.0197,3283.64496 1284.20796,3284.73539 1282.9739,3286.3239 L1282.9739,3286.3243 Z M1259.50419,3279.73872 C1256.33666,3279.73872 1253.75467,3277.16567 1253.75467,3274.0004 C1253.75467,3270.83513 1256.33273,3268.26209 1259.50419,3268.26209 C1262.67171,3268.26209 1265.2537,3270.83513 1265.2537,3274.0004 C1265.24977,3277.16567 1262.67171,3279.73872 1259.50419,3279.73872 Z M1230.89745,3283.36688 L1230.89745,3264.64216 C1232.98425,3264.35975 1234.79599,3263.27325 1236.02612,3261.68474 L1252.2531,3271.03164 C1251.87189,3271.94946 1251.65968,3272.9497 1251.65968,3274.0008 C1251.65968,3275.0481 1251.87582,3276.05221 1252.2531,3276.96997 L1236.02612,3286.31687 C1234.79599,3284.73619 1232.98042,3283.64572 1230.89745,3283.36728 L1230.89745,3283.36688 Z M1281.90445,3253.94533 C1281.52324,3254.86315 1281.31102,3255.86338 1281.31102,3256.91449 C1281.31102,3257.9656 1281.52717,3258.9659 1281.90445,3259.88366 L1265.68149,3269.23056 C1264.44743,3267.64596 1262.6358,3266.5555 1260.55282,3266.27314 L1260.55282,3247.54841 C1262.63962,3247.26601 1264.44743,3246.1795 1265.68149,3244.591 L1281.90445,3253.94533 Z M1259.50318,3234.09097 C1262.67071,3234.09097 1265.2527,3236.66401 1265.2527,3239.82928 C1265.2527,3242.99455 1262.67463,3245.5676 1259.50318,3245.5676 C1256.33173,3245.5676 1253.75366,3242.99455 1253.75366,3239.82928 C1253.75366,3236.66401 1256.33173,3234.09097 1259.50318,3234.09097 Z M1253.32135,3244.59501 C1254.55148,3246.1796 1256.36704,3247.27007 1258.45002,3247.55243 L1258.45002,3266.27716 C1256.36322,3266.55956 1254.55148,3267.64607 1253.32135,3269.23457 L1237.09437,3259.88767 C1237.47558,3258.96985 1237.68779,3257.96962 1237.68779,3256.91851 C1237.68779,3255.8674 1237.47164,3254.8671 1237.09437,3253.94934 L1253.32135,3244.59501 Z M1224.09789,3256.9155 C1224.09789,3253.75414 1226.67596,3251.17718 1229.84741,3251.17718 C1233.01886,3251.17718 1235.59692,3253.75023 1235.59692,3256.9155 C1235.59692,3260.08077 1233.01886,3262.65381 1229.84741,3262.65381 C1226.67596,3262.65381 1224.09789,3260.08077 1224.09789,3256.9155 Z M1229.84741,3296.82904 C1226.67988,3296.82904 1224.09789,3294.256 1224.09789,3291.09073 C1224.09789,3287.92938 1226.67596,3285.35633 1229.84741,3285.35633 C1233.01886,3285.35633 1235.59692,3287.92938 1235.59692,3291.09073 C1235.59692,3294.256 1233.01493,3296.82904 1229.84741,3296.82904 Z M1237.09819,3294.0599 C1237.4794,3293.14208 1237.69161,3292.14184 1237.69161,3291.09073 C1237.69161,3290.03962 1237.47547,3289.03933 1237.09819,3288.12548 L1253.32517,3278.77075 C1254.55923,3280.35534 1256.37087,3281.44189 1258.45777,3281.72425 L1258.45777,3300.45299 C1256.37097,3300.7354 1254.55923,3301.8219 1253.32517,3303.4065 L1237.09819,3294.0599 Z M1259.50348,3313.91425 C1256.33595,3313.91425 1253.75396,3311.34121 1253.75396,3308.17594 C1253.75396,3305.01458 1256.33203,3302.44154 1259.50348,3302.44154 C1262.67101,3302.44154 1265.253,3305.01458 1265.253,3308.17594 C1265.24907,3311.34121 1262.67101,3313.91425 1259.50348,3313.91425 Z M1265.67746,3303.41021 C1264.44733,3301.82562 1262.63177,3300.73907 1260.54879,3300.45279 L1260.54879,3281.72807 C1262.63559,3281.44566 1264.44733,3280.35916 1265.67746,3278.77456 L1281.90042,3288.12146 C1281.51921,3289.03928 1281.307,3290.04344 1281.307,3291.09063 C1281.307,3292.14184 1281.52314,3293.14204 1281.90042,3294.0598 L1265.67746,3303.41021 Z M1294.90092,3291.08671 C1294.90092,3294.24807 1292.32678,3296.82503 1289.15141,3296.82503 C1285.97996,3296.82503 1283.40581,3294.25198 1283.40581,3291.08671 C1283.40581,3287.92536 1285.97996,3285.35232 1289.15141,3285.35232 C1292.32286,3285.35232 1294.90092,3287.92536 1294.90092,3291.08671 Z" id="Fill-1" fill="#505050"></path>
        </g>
    </g>
</svg>