<svg width="84px" height="60px" viewBox="0 0 84 60" version="1.1" xmlns="http://www.w3.org/2000/svg" xmlns:xlink="http://www.w3.org/1999/xlink">
    <g id="Page-1" stroke="none" stroke-width="1" fill="none" fill-rule="evenodd">
        <g id="Homepage-v2" transform="translate(-858.000000, -3612.000000)">
            <circle id="Oval-Copy-2" fill="#FFD200" cx="900" cy="3642" r="21"></circle>
            <g id="Group-9" transform="translate(858.000000, 3612.000000)" fill="#505050">
                <path d="M42.199,41.5 C35.8982,41.5 30.699,36.3008 30.699,30 C30.699,23.6992 35.8982,18.5 42.199,18.5 C48.4998,18.5 53.699,23.6992 53.699,30 C53.699,36.3008 48.4998,41.5 42.199,41.5 Z M42.199,21.5 C37.4998,21.5 33.699,25.3008 33.699,30 C33.699,34.6992 37.4998,38.5 42.199,38.5 C46.8982,38.5 50.699,34.6992 50.699,30 C50.699,25.3008 46.8982,21.5 42.199,21.5 Z" id="Fill-1"></path>
                <path d="M46.699,31.301 C45.89822,31.301 45.199,30.60178 45.199,29.801 C45.199,28.1018 43.8006,26.801 42.199,26.801 C41.30056,26.801 40.5974,27.10178 39.9998,27.801 C39.39824,28.40256 38.4998,28.50022 37.8982,27.90256 C37.29664,27.301 37.19898,26.40256 37.79664,25.80096 C38.89824,24.60176 40.59744,23.80096 42.19504,23.80096 C45.49584,23.80096 48.1950563,26.50016 48.1950563,29.80096 C48.19895,30.6994 47.49973,31.301 46.69894,31.301 L46.699,31.301 Z" id="Fill-2"></path>
                <path d="M56.5,45.80114 C56.10156,45.80114 55.69922,45.69944 55.3984,45.40256 C54.79684,44.801 54.79684,43.90256 55.3984,43.30096 C62.6992,36.00016 62.6992,24.10196 55.3984,16.80096 C54.79684,16.1994 54.79684,15.30096 55.3984,14.69936 C55.99996,14.0978 56.8984,14.0978 57.5,14.69936 C66,23.19936 66,37.00036 57.5,45.50036 C57.30078,45.69958 56.89844,45.80114 56.5,45.80114 L56.5,45.80114 Z" id="Fill-3"></path>
                <path d="M63.398,52.80136 C62.99956,52.80136 62.59722,52.69944 62.2964,52.40256 C61.69484,51.801 61.69484,50.90256 62.2964,50.30096 C73.3984,39.19896 73.3984,21.10196 62.2964,9.90296 C61.69484,9.3014 61.69484,8.40296 62.2964,7.80136 C62.89796,7.1998 63.7964,7.1998 64.398,7.80136 C76.8,20.00036 76.8,40.00037 64.49956,52.30136 C64.19878,52.60214 63.80034,52.80136 63.39796,52.80136 L63.398,52.80136 Z" id="Fill-4"></path>
                <path d="M70.398,59.801 C69.99956,59.801 69.59722,59.69944 69.2964,59.40256 C68.69484,58.801 68.69484,57.90256 69.2964,57.30096 C84.2964,42.30096 84.2964,17.90296 69.2964,2.90296 C68.69484,2.3014 68.69484,1.40296 69.2964,0.80136 C69.89796,0.1998 70.7964,0.1998 71.398,0.80136 C87.597,17.00036 87.597,43.30136 71.398,59.40337 C71.19878,59.60259 70.80034,59.80181 70.398,59.80181 L70.398,59.801 Z" id="Fill-5"></path>
                <path d="M27.5,45.801 C27.10156,45.801 26.69922,45.69944 26.3984,45.40256 C17.8984,36.90256 17.8984,23.10156 26.3984,14.60156 C26.99996,14 27.8984,14 28.5,14.60156 C29.10156,15.20312 29.10156,16.10156 28.5,16.70316 C21.1992,24.00396 21.1992,35.90216 28.5,43.20316 C29.10156,43.80472 29.10156,44.70316 28.5,45.30476 C28.30078,45.69929 27.89844,45.801 27.5,45.801 L27.5,45.801 Z" id="Fill-6"></path>
                <path d="M20.602,52.801 C20.20356,52.801 19.80122,52.69944 19.5004,52.40256 C7.1994,40.00056 7.1994,20.00056 19.5004,7.69956 C20.10196,7.098 21.0004,7.098 21.602,7.69956 C22.20356,8.30112 22.20356,9.19956 21.602,9.80116 C10.5,20.90316 10.5,39.00016 21.602,50.19916 C22.20356,50.80072 22.20356,51.69916 21.602,52.30076 C21.39888,52.60154 21.00044,52.801 20.602,52.801 L20.602,52.801 Z" id="Fill-7"></path>
                <path d="M13.602,59.801 C13.20356,59.801 12.80122,59.69944 12.5004,59.40256 C-3.6986,43.20356 -3.6986,16.90256 12.5004,0.80056 C13.10196,0.199 14.0004,0.199 14.602,0.80056 C15.20356,1.40212 15.20356,2.30056 14.602,2.90216 C-0.398001,17.90216 -0.398001,42.30016 14.602,57.30016 C15.20356,57.90172 15.20356,58.80016 14.602,59.40176 C14.39888,59.60098 14.00044,59.8002 13.602,59.8002 L13.602,59.801 Z" id="Fill-8"></path>
            </g>
        </g>
    </g>
</svg>