<svg width="94px" height="100px" viewBox="0 0 94 100" version="1.1" xmlns="http://www.w3.org/2000/svg" xmlns:xlink="http://www.w3.org/1999/xlink">
    <g id="Page-1" stroke="none" stroke-width="1" fill="none" fill-rule="evenodd">
        <g id="Homepage-v2" transform="translate(-1212.000000, -3597.000000)">
            <rect id="Rectangle" fill="#FFD200" x="1246" y="3599" width="27" height="8"></rect>
            <rect id="Rectangle-Copy-12" fill="#FFD200" x="1246" y="3616" width="27" height="8"></rect>
            <rect id="Rectangle-Copy-13" fill="#FFD200" x="1246" y="3661" width="27" height="8"></rect>
            <polygon id="Path-3" fill="#FFD200" points="1259.37881 3633 1249 3641.95414 1259.37881 3653 1270 3641.95597"></polygon>
            <g id="Group-4" transform="translate(1212.000000, 3597.000000)" fill="#505050">
                <path d="M93.875,23.438 C93.875,19.6646 91.1875,16.5083 87.625,15.7818 L87.625,6.2506 C87.625,5.38732 86.92578,4.6881 86.0625,4.6881 L62.6245,4.6881 L62.6245,1.5631 C62.6245,0.69982 61.92528,0.0006 61.062,0.0006 L32.937,0.0006 C32.07372,0.0006 31.3745,0.69982 31.3745,1.5631 L31.3745,4.6881 L20.4365,4.6881 C19.57322,4.6881 18.874,5.38732 18.874,6.2506 L18.874,21.8756 L7.936,21.8756 C7.07272,21.8756 6.373501,22.57482 6.373501,23.4381 L6.373501,37.6571 C2.811001,38.38366 0.123501,41.5399 0.123501,45.3133 C0.123501,49.0867 2.811001,52.243 6.373501,52.9695 L6.373501,67.1885 C6.373501,68.05178 7.07272,68.751 7.936,68.751 L31.374,68.751 L31.374,71.876 C31.374,72.73928 32.07322,73.4385 32.9365,73.4385 L45.4365,73.4385 L45.4365,78.251 C40.1474,79.01272 36.0615,83.5635 36.0615,89.063 C36.0615,95.094199 40.9677,100.000999 46.9995,100.000999 C52.4995,100.000999 57.0505,95.915099 57.8115,90.625999 L75.123501,90.625999 C75.98678,90.625999 76.686,89.92678 76.686,89.0635 L76.686,46.8755 L86.061,46.8755 C86.92428,46.8755 87.623501,46.17628 87.623501,45.313 L87.623501,31.094 C91.186,30.36744 93.8735,27.2112 93.8735,23.4378 L93.875,23.438 Z M34.5,3.126 L59.5,3.126 L59.5,9.376 L34.5,9.376 L34.5,3.126 Z M22,7.8135 L31.375,7.8135 L31.375,10.9385 C31.375,11.80178 32.07422,12.501 32.9375,12.501 L45.4375,12.501 L45.4375,17.1885 L32.9375,17.1885 C32.07422,17.1885 31.375,17.88772 31.375,18.751 L31.375,21.876 L22,21.876 L22,7.8135 Z M47,54.1535 L38.1602,45.3137 L47,36.4739 L55.8398,45.3137 L47,54.1535 Z M34.5,26.5635 L34.5,20.3135 L59.5,20.3135 L59.5,26.5635 L34.5,26.5635 Z M3.25,45.3135 C3.25,42.7276 5.3516,40.626 7.9375,40.626 C10.5234,40.626 12.625,42.7276 12.625,45.3135 C12.625,47.8994 10.5234,50.001 7.9375,50.001 C5.3516,50.001 3.25,47.8994 3.25,45.3135 Z M31.375,62.5015 L31.375,65.6265 L9.5,65.6265 L9.5,52.9705 C13.0625,52.24394 15.75,49.0877 15.75,45.3143 C15.75,41.5409 13.0625,38.3846 9.5,37.6581 L9.5,25.0021 L31.375,25.0021 L31.375,28.1271 C31.375,28.99038 32.07422,29.6896 32.9375,29.6896 L45.4375,29.6896 L45.4375,33.6193 L35.3045,43.7523 L31.3748,43.7523 L31.3748,46.8773 L35.3045,46.8773 L45.4375,57.0103 L45.4375,60.94 L32.9375,60.94 C32.07422,60.94 31.375,61.63922 31.375,62.5025 L31.375,62.5015 Z M34.5,64.064 L59.5,64.064 L59.5,70.314 L34.5,70.314 L34.5,64.064 Z M47,96.875999 C42.6914,96.875999 39.1875,93.372099 39.1875,89.0635 C39.1875,84.7549 42.6914,81.251 47,81.251 C51.3086,81.251 54.8125,84.7549 54.8125,89.0635 C54.8125,93.372099 51.3086,96.875999 47,96.875999 Z M73.562,87.501 L57.812,87.501 C57.1245,82.7198 53.3432,78.9385 48.562,78.251 L48.562,73.4385 L61.062,73.4385 C61.92528,73.4385 62.6245,72.73928 62.6245,71.876 L62.6245,62.501 C62.6245,61.63772 61.92528,60.9385 61.062,60.9385 L48.562,60.9385 L48.562,57.0088 L58.695,46.8758 L73.562,46.8758 L73.562,87.501 Z M58.695,43.751 L48.562,33.618 L48.562,29.6883 L61.062,29.6883 C61.92528,29.6883 62.6245,28.98908 62.6245,28.1258 L62.6245,18.7508 C62.6245,17.88752 61.92528,17.1883 61.062,17.1883 L48.562,17.1883 L48.562,12.5008 L61.062,12.5008 C61.92528,12.5008 62.6245,11.80158 62.6245,10.9383 L62.6245,7.8133 L84.4995,7.8133 L84.4995,15.7821 C80.937,16.50866 78.2495,19.6649 78.2495,23.4383 C78.2495,27.2117 80.937,30.368 84.4995,31.0945 L84.4995,43.7505 L58.695,43.751 Z M86.062,28.126 C83.4761,28.126 81.3745,26.0244 81.3745,23.4385 C81.3745,20.8526 83.4761,18.751 86.062,18.751 C88.6479,18.751 90.7495,20.8526 90.7495,23.4385 C90.7495,26.0244 88.6479,28.126 86.062,28.126 Z" id="Fill-1"></path>
                <polygon id="Fill-2" points="18.875 43.75 22 43.75 22 46.875 18.875 46.875"></polygon>
                <polygon id="Fill-3" points="25.125 43.75 28.25 43.75 28.25 46.875 25.125 46.875"></polygon>
            </g>
        </g>
    </g>
</svg>