<svg width="87px" height="87px" viewBox="0 0 87 87" version="1.1" xmlns="http://www.w3.org/2000/svg" xmlns:xlink="http://www.w3.org/1999/xlink">
    <g id="Page-1" stroke="none" stroke-width="1" fill="none" fill-rule="evenodd">
        <g id="Homepage-v2" transform="translate(-496.000000, -3598.000000)">
            <rect id="Rectangle" fill="#FFD200" x="523" y="3626" width="33" height="32"></rect>
            <circle id="Oval" fill="#FFFFFF" cx="523" cy="3658" r="6"></circle>
            <circle id="Oval-Copy-3" fill="#FFFFFF" cx="556" cy="3624" r="6"></circle>
            <g id="Group-3" transform="translate(496.000000, 3598.000000)" fill="#505050">
                <path d="M81.0420075,52.6862192 L81.0420075,15.3101626 C84.4520671,14.4939499 86.9963814,11.4233965 86.9963814,7.76638634 C86.9963814,3.48387903 83.5120504,0 79.2327173,0 C75.5752372,0 72.5079476,2.54405031 71.6881582,5.9572839 L34.3082232,5.9572839 C33.4883886,2.54757806 30.4210538,0 26.7636641,0 C22.4807124,0 19,3.48396949 19,7.76638634 C19,11.4234869 21.5443143,14.4904583 24.954374,15.3101626 L24.954374,52.6898374 C21.5443143,53.5060501 19,56.5766035 19,60.2336137 C19,64.516121 22.484331,68 26.7636641,68 C30.4211442,68 33.4884338,65.4559497 34.3082232,62.0427161 L71.6917768,62.0427161 C72.5080742,65.4524219 75.5789462,67.9964723 79.2363359,67.9964723 C83.5157594,67.9964723 87,64.5125028 87,60.2336137 C86.9964628,56.5729853 84.4521576,53.5060139 81.0420979,52.6862192 L81.0420075,52.6862192 Z M79.2327173,3.61793353 C81.5190268,3.61793353 83.3778011,5.47651492 83.3778011,7.76611498 C83.3778011,10.0521873 81.5190268,11.9107687 79.2327173,11.9107687 C76.9464078,11.9107687 75.0841054,10.0521873 75.0841054,7.76611498 C75.0841054,5.48004267 76.9464078,3.61793353 79.2327173,3.61793353 Z M22.6182185,7.76611498 C22.6182185,5.48004267 24.4769927,3.61793353 26.7633023,3.61793353 C29.0496118,3.61793353 30.9083861,5.48004267 30.9083861,7.76611498 C30.9083861,10.0521873 29.0496118,11.9107687 26.7633023,11.9107687 C24.4769927,11.9107687 22.6182185,10.0521873 22.6182185,7.76611498 Z M26.7633023,64.3783578 C24.4769927,64.3783578 22.6182185,62.5162487 22.6182185,60.2301764 C22.6182185,57.9441041 24.4769927,56.0855227 26.7633023,56.0855227 C29.0496118,56.0855227 30.9083861,57.9441041 30.9083861,60.2301764 C30.9083861,62.5162487 29.0496118,64.3783578 26.7633023,64.3783578 Z M71.6879773,58.4211644 L34.3080423,58.4211644 C33.6295585,55.5908236 31.4033174,53.3648135 28.5727734,52.6864001 L28.5727734,15.3103435 C31.4033174,14.6319301 33.6295585,12.40592 34.3080423,9.5756697 L71.6915958,9.5756697 C72.3700797,12.40592 74.5963208,14.6319301 77.4268648,15.3103435 L77.4268648,52.6900183 C74.5927926,53.3648949 72.3664611,55.590914 71.6879773,58.4211644 L71.6879773,58.4211644 Z M79.2325364,64.3748301 C76.9462268,64.3748301 75.0839245,62.5162487 75.0839245,60.2301764 C75.0839245,57.9441041 76.9462268,56.0819949 79.2325364,56.0819949 C81.5188459,56.0819949 83.3776201,57.9441041 83.3776201,60.2301764 C83.3776201,62.5162487 81.5188459,64.3748301 79.2325364,64.3748301 Z" id="Fill-1"></path>
                <path d="M62.0420074,71.6889484 L62.0420074,34.3109557 C65.4520671,33.4947007 67.9963814,30.4239882 67.9963814,26.7667887 C67.9963814,22.4840595 64.5120504,19 60.2327172,19 C56.5752371,19 53.5079474,21.5441821 52.688158,24.9575925 L15.3082225,24.9575925 C14.4883879,21.54771 11.421053,19 7.76366333,19 C3.48071248,19 0,22.48415 0,26.7667887 C0,30.4240787 2.54431434,33.4912089 5.95437404,34.3109557 L5.95437404,71.6925758 C2.54431434,72.5088309 0,75.5760154 0,79.233215 C0,83.5159396 3.48433106,87 7.76366333,87 C11.4211435,87 14.4884331,84.4558179 15.3082225,81.0424075 L52.6917766,81.0424075 C53.508074,84.45229 56.5789461,86.9964721 60.2363358,86.9964721 C64.5157594,86.9964721 68,83.5123221 68,79.233215 C67.9964628,75.5759249 65.4521575,72.5087947 62.0420978,71.6890479 L62.0420074,71.6889484 Z M60.2327172,22.61813 C62.5190267,22.61813 64.377801,24.4768077 64.377801,26.7665263 C64.377801,29.052708 62.5190267,30.9113857 60.2327172,30.9113857 C57.9464076,30.9113857 56.0841052,29.052708 56.0841052,26.7665263 C56.0841052,24.4803356 57.9464076,22.61813 60.2327172,22.61813 Z M3.61821673,26.7665263 C3.61821673,24.4803356 5.47699101,22.61813 7.76330147,22.61813 C10.049611,22.61813 11.9083853,24.4768077 11.9083853,26.7665263 C11.9083853,29.052708 10.049611,30.9113857 7.76330147,30.9113857 C5.47699101,30.9113857 3.61821673,29.052708 3.61821673,26.7665263 Z M7.76330147,83.3816963 C5.47699101,83.3816963 3.61821673,81.5194907 3.61821673,79.2332964 C3.61821673,76.9471056 5.47699101,75.088428 7.76330147,75.088428 C10.049611,75.088428 11.9083853,76.9471056 11.9083853,79.2332964 C11.9083853,81.5194907 10.049611,83.3816963 7.76330147,83.3816963 Z M52.6879771,77.4241997 L15.3080416,77.4241997 C14.6295578,74.5937033 12.4033166,72.3675779 9.5727726,71.6891293 L9.5727726,34.3111366 C12.4033166,33.6326881 14.6295578,31.4065627 15.3080416,28.5761657 L52.6915956,28.5761657 C53.3700795,31.4065627 55.5963206,33.6326881 58.4268646,34.3111366 L58.4268646,71.6927567 C55.5927925,72.3676683 53.3664609,74.5938028 52.6879771,77.4241997 L52.6879771,77.4241997 Z M60.2325363,83.3781684 C57.9462267,83.3781684 56.0839243,81.5194907 56.0839243,79.2332964 C56.0839243,76.9471056 57.9462267,75.0849 60.2325363,75.0849 C62.5188458,75.0849 64.3776201,76.9471056 64.3776201,79.2332964 C64.3776201,81.5194907 62.5188458,83.3781684 60.2325363,83.3781684 Z" id="Fill-2"></path>
            </g>
        </g>
    </g>
</svg>